<svg width="16" height="16" viewBox="0 0 16 16" fill="none" xmlns="http://www.w3.org/2000/svg">
<path d="M7.5 0H8.5V1.03125C11 1.28125 13 3.40625 13 6V9.0625L14.8438 10.9062L15 11.0625V11.25V12.5V13H14.5H1.5H1V12.5V11.25V11.0625L1.125 10.9062L3 9.0625V6C3 3.40625 4.96875 1.28125 7.5 1.03125V0ZM8 2C5.78125 2 4 3.8125 4 6V9.25V9.46875L3.84375 9.625L2 11.4688V12H14V11.4688L12.125 9.625L12 9.46875V9.25V6C12 3.8125 10.1875 2 8 2ZM6 14H7C7 14.5625 7.4375 15 8 15C8.53125 15 9 14.5625 9 14H10C10 15.125 9.09375 16 8 16C6.875 16 6 15.125 6 14Z" fill="white"/>
</svg>
