<svg width="16" height="16" viewBox="0 0 16 16" fill="none" xmlns="http://www.w3.org/2000/svg">
<path d="M5 4V3L7.2812 0.71875L8 0L8.6875 0.71875L11 3V4H10H8.5V7.5H12V6V5H13L15.2812 7.3125L16 8L15.2812 8.7188L13 11H12V10V8.5H8.5V12H10H11V13L8.6875 15.3125L8 16L7.2812 15.3125L5 13V12H6H7.5V8.5H4V10V11H3L0.6875 8.7188L0 8L0.6875 7.3125L3 5H4V6V7.5H7.5V4H6H5ZM9.5625 3L8 1.4375L6.4062 3H9.5625ZM1.40625 8L3 9.5938V6.4375L1.40625 8ZM9.5625 13H6.4062L8 14.5938L9.5625 13ZM14.5625 8L13 6.4375V9.5938L14.5625 8Z" fill="#1D4B34"/>
</svg>
