<svg width="362" height="73" viewBox="0 0 362 73" fill="none" xmlns="http://www.w3.org/2000/svg">
<path d="M5.384 17.192C4.65867 17.192 3.97067 17.0587 3.32 16.792C2.68 16.5253 2.10933 16.1467 1.608 15.656L2.616 14.44C2.98933 14.8027 3.42133 15.0853 3.912 15.288C4.41333 15.48 4.91467 15.576 5.416 15.576C6.01333 15.576 6.46667 15.4533 6.776 15.208C7.08533 14.9627 7.24 14.6373 7.24 14.232C7.24 13.944 7.17067 13.7147 7.032 13.544C6.89333 13.3627 6.70133 13.208 6.456 13.08C6.22133 12.952 5.944 12.824 5.624 12.696L4.184 12.072C3.84267 11.9227 3.50667 11.7307 3.176 11.496C2.856 11.2507 2.58933 10.952 2.376 10.6C2.17333 10.2373 2.072 9.8 2.072 9.288C2.072 8.73333 2.22133 8.23733 2.52 7.8C2.82933 7.352 3.24533 7 3.768 6.744C4.30133 6.47733 4.90933 6.344 5.592 6.344C6.22133 6.344 6.81333 6.46133 7.368 6.696C7.93333 6.92 8.41333 7.22933 8.808 7.624L7.832 8.84C7.49067 8.56267 7.13333 8.34933 6.76 8.2C6.38667 8.04 5.99733 7.96 5.592 7.96C5.10133 7.96 4.70133 8.072 4.392 8.296C4.09333 8.50933 3.944 8.808 3.944 9.192C3.944 9.45867 4.01867 9.68267 4.168 9.864C4.328 10.0347 4.536 10.184 4.792 10.312C5.05867 10.4293 5.33067 10.5467 5.608 10.664L7.032 11.256C7.448 11.4373 7.816 11.6507 8.136 11.896C8.456 12.1413 8.70133 12.44 8.872 12.792C9.05333 13.144 9.144 13.576 9.144 14.088C9.144 14.6533 8.99467 15.1707 8.696 15.64C8.39733 16.1093 7.96533 16.488 7.4 16.776C6.84533 17.0533 6.17333 17.192 5.384 17.192ZM14.2628 17.192C13.5268 17.192 12.8601 17.032 12.2628 16.712C11.6761 16.3813 11.2121 15.912 10.8708 15.304C10.5294 14.6853 10.3588 13.9387 10.3588 13.064C10.3588 12.2107 10.5348 11.48 10.8868 10.872C11.2388 10.2533 11.6921 9.77867 12.2468 9.448C12.8014 9.11733 13.3881 8.952 14.0068 8.952C14.7214 8.952 15.3188 9.112 15.7988 9.432C16.2788 9.752 16.6361 10.1947 16.8708 10.76C17.1161 11.3147 17.2388 11.9547 17.2388 12.68C17.2388 12.8507 17.2281 13.016 17.2068 13.176C17.1961 13.336 17.1748 13.4907 17.1428 13.64H11.7348V12.232H15.6068C15.6068 11.6667 15.4788 11.224 15.2228 10.904C14.9668 10.5733 14.5721 10.408 14.0388 10.408C13.7401 10.408 13.4468 10.488 13.1588 10.648C12.8814 10.808 12.6468 11.08 12.4548 11.464C12.2734 11.848 12.1828 12.3813 12.1828 13.064C12.1828 13.6827 12.2894 14.1893 12.5028 14.584C12.7161 14.968 12.9988 15.256 13.3508 15.448C13.7028 15.6293 14.0814 15.72 14.4868 15.72C14.8281 15.72 15.1481 15.672 15.4468 15.576C15.7561 15.48 16.0441 15.3467 16.3108 15.176L16.9508 16.36C16.5881 16.616 16.1721 16.8187 15.7028 16.968C15.2441 17.1173 14.7641 17.192 14.2628 17.192ZM20.7126 17.192C20.254 17.192 19.8486 17.096 19.4966 16.904C19.1446 16.712 18.8673 16.4453 18.6646 16.104C18.4726 15.752 18.3766 15.3467 18.3766 14.888C18.3766 14.0027 18.7446 13.336 19.4806 12.888C20.2273 12.4293 21.406 12.1147 23.0166 11.944C23.006 11.6773 22.9526 11.432 22.8566 11.208C22.7713 10.984 22.622 10.808 22.4086 10.68C22.206 10.5413 21.9286 10.472 21.5766 10.472C21.1926 10.472 20.814 10.5413 20.4406 10.68C20.078 10.8187 19.7206 10.9947 19.3686 11.208L18.6966 9.96C18.9846 9.77867 19.2993 9.61333 19.6406 9.464C19.982 9.304 20.3446 9.18133 20.7286 9.096C21.1126 9 21.5126 8.952 21.9286 8.952C22.5793 8.952 23.118 9.08533 23.5446 9.352C23.982 9.608 24.3073 9.992 24.5206 10.504C24.7446 11.0053 24.8566 11.624 24.8566 12.36V17H23.3366L23.2086 16.136H23.1446C22.782 16.4347 22.4033 16.6853 22.0086 16.888C21.614 17.0907 21.182 17.192 20.7126 17.192ZM21.2886 15.688C21.6086 15.688 21.902 15.624 22.1686 15.496C22.446 15.3573 22.7286 15.1547 23.0166 14.888V13.224C22.302 13.3093 21.7366 13.4213 21.3206 13.56C20.9046 13.6987 20.606 13.8693 20.4246 14.072C20.254 14.264 20.1686 14.4933 20.1686 14.76C20.1686 15.0907 20.2753 15.3307 20.4886 15.48C20.702 15.6187 20.9686 15.688 21.2886 15.688ZM27.0586 17V9.144H28.5786L28.7066 10.536H28.7706C29.048 10.024 29.3786 9.63467 29.7626 9.368C30.1573 9.09067 30.568 8.952 30.9946 8.952C31.1973 8.952 31.368 8.96267 31.5066 8.984C31.6453 9.00533 31.7733 9.048 31.8906 9.112L31.5226 10.68C31.3946 10.648 31.2773 10.6267 31.1706 10.616C31.064 10.5947 30.9253 10.584 30.7546 10.584C30.4453 10.584 30.12 10.7067 29.7786 10.952C29.4373 11.1867 29.144 11.6027 28.8986 12.2V17H27.0586ZM36.1831 17.192C35.4578 17.192 34.8071 17.032 34.2311 16.712C33.6551 16.3813 33.1965 15.912 32.8551 15.304C32.5245 14.6853 32.3591 13.944 32.3591 13.08C32.3591 12.2053 32.5405 11.464 32.9031 10.856C33.2658 10.2373 33.7458 9.768 34.3431 9.448C34.9511 9.11733 35.6018 8.952 36.2951 8.952C36.7965 8.952 37.2338 9.03733 37.6071 9.208C37.9911 9.368 38.3218 9.576 38.5991 9.832L37.7191 10.984C37.5485 10.824 37.3511 10.696 37.1271 10.6C36.9138 10.504 36.6685 10.456 36.3911 10.456C35.9751 10.456 35.6071 10.568 35.2871 10.792C34.9671 11.0053 34.7111 11.3093 34.5191 11.704C34.3378 12.088 34.2471 12.5467 34.2471 13.08C34.2471 13.6027 34.3378 14.0613 34.5191 14.456C34.7005 14.84 34.9458 15.144 35.2551 15.368C35.5751 15.5813 35.9431 15.688 36.3591 15.688C36.6685 15.688 36.9565 15.6293 37.2231 15.512C37.5005 15.3947 37.7458 15.2453 37.9591 15.064L38.7111 16.2C38.3805 16.4987 37.9965 16.7387 37.5591 16.92C37.1325 17.1013 36.6738 17.192 36.1831 17.192ZM40.2618 17V5.704H42.1018V8.616L42.0378 10.136C42.3684 9.82667 42.7364 9.55467 43.1418 9.32C43.5471 9.07467 44.0164 8.952 44.5498 8.952C45.3924 8.952 46.0058 9.224 46.3898 9.768C46.7738 10.312 46.9658 11.08 46.9658 12.072V17H45.1258V12.312C45.1258 11.6613 45.0298 11.2027 44.8378 10.936C44.6458 10.6693 44.3311 10.536 43.8938 10.536C43.5524 10.536 43.2484 10.6213 42.9818 10.792C42.7258 10.952 42.4324 11.192 42.1018 11.512V17H40.2618Z" fill="#212223"/>
<rect x="0.5" y="31.5" width="361" height="41" rx="4.5" fill="#F7F7F7"/>
<rect x="0.5" y="31.5" width="361" height="41" rx="4.5" stroke="#8A8A8A"/>
<path d="M1 36C1 33.7909 2.79086 32 5 32H321V72H5C2.79086 72 1 70.2091 1 68V36Z" fill="white"/>
<path d="M14.312 57V49.224H15.624V57H14.312ZM14.968 47.624C14.712 47.624 14.4987 47.544 14.328 47.384C14.168 47.224 14.088 47.016 14.088 46.76C14.088 46.504 14.168 46.296 14.328 46.136C14.4987 45.976 14.712 45.896 14.968 45.896C15.224 45.896 15.432 45.976 15.592 46.136C15.7627 46.296 15.848 46.504 15.848 46.76C15.848 47.016 15.7627 47.224 15.592 47.384C15.432 47.544 15.224 47.624 14.968 47.624ZM18.2495 57V49.224H19.3375L19.4495 50.344H19.4975C19.8708 49.9707 20.2655 49.6613 20.6815 49.416C21.0975 49.16 21.5722 49.032 22.1055 49.032C22.9268 49.032 23.5242 49.2933 23.8975 49.816C24.2815 50.328 24.4735 51.08 24.4735 52.072V57H23.1615V52.248C23.1615 51.512 23.0442 50.984 22.8095 50.664C22.5855 50.3333 22.2122 50.168 21.6895 50.168C21.2948 50.168 20.9375 50.2693 20.6175 50.472C20.3082 50.6747 19.9562 50.9733 19.5615 51.368V57H18.2495ZM26.9995 60.28V49.224H28.0875L28.1995 50.12H28.2475C28.5995 49.8213 28.9888 49.5653 29.4155 49.352C29.8422 49.1387 30.2795 49.032 30.7275 49.032C31.3888 49.032 31.9488 49.1973 32.4075 49.528C32.8662 49.848 33.2128 50.3067 33.4475 50.904C33.6822 51.4907 33.7995 52.1893 33.7995 53C33.7995 53.8747 33.6395 54.6267 33.3195 55.256C33.0102 55.8853 32.5995 56.3653 32.0875 56.696C31.5755 57.0267 31.0262 57.192 30.4395 57.192C30.0875 57.192 29.7302 57.112 29.3675 56.952C29.0048 56.792 28.6422 56.5733 28.2795 56.296L28.3115 57.656V60.28H26.9995ZM30.2155 56.088C30.6422 56.088 31.0208 55.9653 31.3515 55.72C31.6928 55.4747 31.9595 55.1227 32.1515 54.664C32.3435 54.1947 32.4395 53.64 32.4395 53C32.4395 52.4347 32.3702 51.9387 32.2315 51.512C32.0928 51.0747 31.8742 50.7387 31.5755 50.504C31.2768 50.2587 30.8822 50.136 30.3915 50.136C30.0715 50.136 29.7408 50.2267 29.3995 50.408C29.0582 50.5787 28.6955 50.84 28.3115 51.192V55.272C28.6742 55.5707 29.0155 55.784 29.3355 55.912C29.6662 56.0293 29.9595 56.088 30.2155 56.088ZM38.1465 57.192C37.3252 57.192 36.7225 56.936 36.3385 56.424C35.9652 55.9013 35.7785 55.144 35.7785 54.152V49.224H37.0905V53.976C37.0905 54.7013 37.2025 55.2293 37.4265 55.56C37.6612 55.88 38.0345 56.04 38.5465 56.04C38.9412 56.04 39.2932 55.9387 39.6025 55.736C39.9225 55.5227 40.2692 55.192 40.6425 54.744V49.224H41.9545V57H40.8665L40.7545 55.784H40.7065C40.3545 56.2107 39.9705 56.552 39.5545 56.808C39.1492 57.064 38.6798 57.192 38.1465 57.192ZM47.0256 57.144C46.2043 57.144 45.6283 56.904 45.2976 56.424C44.967 55.944 44.8016 55.32 44.8016 54.552V50.296H43.6496V49.304L44.8656 49.224L45.0256 46.728H46.1296V49.224H48.2416V50.296H46.1296V54.568C46.1296 55.0373 46.215 55.4053 46.3856 55.672C46.567 55.9387 46.8816 56.072 47.3296 56.072C47.4683 56.072 47.6123 56.0613 47.7616 56.04C47.911 56.008 48.0603 55.9547 48.2096 55.88L48.4976 56.808C48.295 56.904 48.0656 56.984 47.8096 57.048C47.5536 57.112 47.2923 57.144 47.0256 57.144ZM55.635 57.144C54.8137 57.144 54.2377 56.904 53.907 56.424C53.5763 55.944 53.411 55.32 53.411 54.552V50.296H52.259V49.304L53.475 49.224L53.635 46.728H54.739V49.224H56.851V50.296H54.739V54.568C54.739 55.0373 54.8243 55.4053 54.995 55.672C55.1763 55.9387 55.491 56.072 55.939 56.072C56.0777 56.072 56.2217 56.0613 56.371 56.04C56.5203 56.008 56.6697 55.9547 56.819 55.88L57.107 56.808C56.9043 56.904 56.675 56.984 56.419 57.048C56.163 57.112 55.9017 57.144 55.635 57.144ZM61.5265 57.192C60.8332 57.192 60.1985 57.032 59.6225 56.712C59.0572 56.3813 58.6092 55.9173 58.2785 55.32C57.9478 54.712 57.7825 53.976 57.7825 53.112C57.7825 52.2693 57.9532 51.544 58.2945 50.936C58.6358 50.328 59.0732 49.8587 59.6065 49.528C60.1398 49.1973 60.7052 49.032 61.3025 49.032C61.9638 49.032 62.5238 49.1867 62.9825 49.496C63.4518 49.7947 63.8038 50.216 64.0385 50.76C64.2732 51.304 64.3905 51.944 64.3905 52.68C64.3905 52.8187 64.3852 52.952 64.3745 53.08C64.3745 53.208 64.3585 53.336 64.3265 53.464H58.7265V52.424H63.2065C63.2065 51.6773 63.0412 51.1067 62.7105 50.712C62.3905 50.3067 61.9265 50.104 61.3185 50.104C60.9665 50.104 60.6198 50.2053 60.2785 50.408C59.9372 50.6 59.6545 50.9147 59.4305 51.352C59.2172 51.7893 59.1105 52.3707 59.1105 53.096C59.1105 53.7573 59.2225 54.312 59.4465 54.76C59.6812 55.208 59.9958 55.5493 60.3905 55.784C60.7852 56.008 61.2172 56.12 61.6865 56.12C62.0598 56.12 62.4065 56.0667 62.7265 55.96C63.0572 55.8533 63.3558 55.7093 63.6225 55.528L64.1025 56.392C63.7612 56.6267 63.3772 56.8187 62.9505 56.968C62.5345 57.1173 62.0598 57.192 61.5265 57.192ZM65.099 57L67.643 52.936L65.291 49.224H66.715L67.755 50.936C67.8723 51.1387 67.995 51.352 68.123 51.576C68.2617 51.7893 68.395 52.008 68.523 52.232H68.587C68.7043 52.008 68.8217 51.7893 68.939 51.576C69.0563 51.352 69.1737 51.1387 69.291 50.936L70.235 49.224H71.611L69.259 53.08L71.787 57H70.363L69.227 55.192C69.0883 54.9573 68.9443 54.7227 68.795 54.488C68.6563 54.2533 68.5177 54.024 68.379 53.8H68.315C68.1763 54.024 68.043 54.2533 67.915 54.488C67.787 54.712 67.659 54.9467 67.531 55.192L66.475 57H65.099ZM75.4006 57.144C74.5793 57.144 74.0033 56.904 73.6726 56.424C73.342 55.944 73.1766 55.32 73.1766 54.552V50.296H72.0246V49.304L73.2406 49.224L73.4006 46.728H74.5046V49.224H76.6166V50.296H74.5046V54.568C74.5046 55.0373 74.59 55.4053 74.7606 55.672C74.942 55.9387 75.2566 56.072 75.7046 56.072C75.8433 56.072 75.9873 56.0613 76.1366 56.04C76.286 56.008 76.4353 55.9547 76.5846 55.88L76.8726 56.808C76.67 56.904 76.4406 56.984 76.1846 57.048C75.9286 57.112 75.6673 57.144 75.4006 57.144Z" fill="#212223"/>
<mask id="path-6-inside-1_5920_18325" fill="white">
<path d="M281 32H321V72H281V32Z"/>
</mask>
<path d="M281 32H321V72H281V32Z" fill="white" fill-opacity="0.01"/>
<path d="M281 72H282V32H281H280V72H281Z" fill="white" fill-opacity="0.01" mask="url(#path-6-inside-1_5920_18325)"/>
<path d="M294.844 45.1562L301 51.3125L307.125 45.1562L307.5 44.8125L308.188 45.5L307.844 45.875L301.688 52L307.844 58.1562L308.188 58.5L307.5 59.2188L307.125 58.875L301 52.7188L294.844 58.875L294.5 59.2188L293.781 58.5L294.125 58.1562L300.281 52L294.125 45.875L293.781 45.5L294.5 44.8125L294.844 45.1562Z" fill="#212223"/>
<mask id="path-9-inside-2_5920_18325" fill="white">
<path d="M321 32H361V72H321V32Z"/>
</mask>
<path d="M321 32H361V72H321V32Z" fill="white" fill-opacity="0.01"/>
<path d="M321 72H322V32H321H320V72H321Z" fill="white" fill-opacity="0.01" mask="url(#path-9-inside-2_5920_18325)"/>
<path d="M346 50.5C346 51.9375 345.531 53.2812 344.75 54.3438L348.188 57.8125L348.906 58.5L347.5 59.9375L346.781 59.2188L343.312 55.75C342.25 56.5625 340.906 57 339.5 57C335.906 57 333 54.0938 333 50.5C333 46.9375 335.906 44 339.5 44C343.062 44 346 46.9375 346 50.5ZM339.5 55C341.094 55 342.562 54.1562 343.375 52.75C344.188 51.375 344.188 49.6562 343.375 48.25C342.562 46.875 341.094 46 339.5 46C337.875 46 336.406 46.875 335.594 48.25C334.781 49.6562 334.781 51.375 335.594 52.75C336.406 54.1562 337.875 55 339.5 55Z" fill="#212223"/>
</svg>
